<?xml version="1.0" encoding="UTF-8"?><svg id="Layer_1" xmlns="http://www.w3.org/2000/svg" viewBox="0 0 709.71 390.62"><defs><style>.cls-1{fill:#fbdc6a;}.cls-2{fill:#f9f2ad;}.cls-3{fill:#29414d;}</style></defs><polygon class="cls-2" points="709.71 32.12 0 32.6 0 0 709.71 0 709.71 32.12"/><circle class="cls-1" cx="34.51" cy="16.61" r="7.74"/><circle class="cls-1" cx="61.2" cy="16.61" r="7.74"/><circle class="cls-1" cx="87.89" cy="16.61" r="7.74"/><path class="cls-1" d="M138.49,226.18c-1.94,0-3.52-1.58-3.52-3.52v-88.89c0-1.94,1.58-3.52,3.52-3.52s3.52,1.58,3.52,3.52v88.89c0,1.94-1.58,3.52-3.52,3.52Z"/><path class="cls-1" d="M551.54,226.18c-1.94,0-3.52-1.58-3.52-3.52v-88.89c0-1.94,1.58-3.52,3.52-3.52s3.52,1.58,3.52,3.52v88.89c0,1.94-1.58,3.52-3.52,3.52Z"/><path class="cls-1" d="M91.69,199.01c-1.94,0-3.52-1.58-3.52-3.52v-34.55c0-1.94,1.58-3.52,3.52-3.52s3.52,1.58,3.52,3.52v34.55c0,1.94-1.58,3.52-3.52,3.52Z"/><path class="cls-1" d="M598.35,199.01c-1.94,0-3.52-1.58-3.52-3.52v-34.55c0-1.94,1.58-3.52,3.52-3.52s3.52,1.58,3.52,3.52v34.55c0,1.94-1.58,3.52-3.52,3.52Z"/><path class="cls-1" d="M185.3,254.36c-1.94,0-3.52-1.58-3.52-3.52V105.6c0-1.94,1.58-3.52,3.52-3.52s3.52,1.58,3.52,3.52v145.24c0,1.94-1.58,3.52-3.52,3.52Z"/><path class="cls-1" d="M504.73,254.36c-1.94,0-3.52-1.58-3.52-3.52V105.6c0-1.94,1.58-3.52,3.52-3.52s3.52,1.58,3.52,3.52v145.24c0,1.94-1.58,3.52-3.52,3.52Z"/><path class="cls-1" d="M345.77,303.09c-66.89,0-121.31-54.42-121.31-121.31s54.42-121.31,121.31-121.31,121.31,54.42,121.31,121.31-54.42,121.31-121.31,121.31ZM345.77,67.5c-63.01,0-114.27,51.26-114.27,114.27s51.26,114.27,114.27,114.27,114.27-51.26,114.27-114.27-51.26-114.27-114.27-114.27Z"/><rect class="cls-1" x="309.74" y="132.03" width="23.66" height="99.49" rx="5.04" ry="5.04"/><rect class="cls-1" x="358.15" y="132.03" width="23.66" height="99.49" rx="5.04" ry="5.04"/><path class="cls-3" d="M202.38,351.66c0-4.44,2.84-7.08,7.78-7.68l8.98-1.2v-1.65c0-1.9-1.25-3.04-3.84-3.04s-4.09,1.05-4.29,2.99h-7.58c.3-5.49,4.99-8.68,12.02-8.68s11.47,3.39,11.47,8.78v17.66h-7.48l-.25-3.84c-1.55,2.79-4.44,4.49-8.33,4.49-4.99,0-8.48-3.29-8.48-7.83ZM219.14,349.46v-1.85l-6.09.8c-2,.25-2.94,1.2-2.94,2.74,0,1.7,1.25,2.69,3.54,2.69,2.99,0,5.49-1.75,5.49-4.39Z"/><path class="cls-3" d="M237.3,358.84l-9.33-25.79h8.43l5.44,17.76,5.49-17.76h8.03l-9.28,25.79h-8.78Z"/><path class="cls-3" d="M255.55,346.17v-.5c0-7.93,5.34-13.27,13.62-13.27,8.98,0,13.47,6.28,12.92,15.36h-18.61c.35,3.94,2.19,5.84,5.64,5.84,2.84,0,4.44-1.4,4.99-3.04h7.83c-1.25,5.44-5.89,8.93-12.77,8.93-8.43,0-13.62-5.24-13.62-13.32ZM274.06,343.12c-.2-2.94-1.8-4.84-4.99-4.84s-4.94,1.5-5.49,4.84h10.48Z"/><path class="cls-3" d="M286.03,358.84v-25.79h7.63l.2,3.94c1.25-2.29,3.79-4.59,8.13-4.59,6.53,0,8.98,4.14,8.98,9.88v16.56h-7.98v-14.52c0-3.49-1.1-5.54-4.14-5.54s-4.84,2.09-4.84,5.89v14.17h-7.98Z"/><path class="cls-3" d="M315.41,359.79h8.18c.3,1.75,1.7,2.69,4.64,2.69,3.54,0,5.19-1.7,5.19-4.64v-3.84c-1.35,2.39-4.04,4.14-7.63,4.14-6.98,0-11.17-5.69-11.17-12.62v-.5c0-6.93,4.19-12.62,11.17-12.62,4.09,0,6.88,2.34,7.98,4.74l.25-4.09h7.43v23.79c0,7.23-5.09,11.12-13.57,11.12-7.68,0-12.07-3.29-12.47-8.18ZM333.67,345.47v-.45c0-4.14-1.8-6.63-5.49-6.63s-5.49,2.49-5.49,6.63v.45c0,4.14,1.8,6.63,5.49,6.63s5.49-2.49,5.49-6.63Z"/><path class="cls-3" d="M345.09,351.66c0-4.44,2.84-7.08,7.78-7.68l8.98-1.2v-1.65c0-1.9-1.25-3.04-3.84-3.04s-4.09,1.05-4.29,2.99h-7.58c.3-5.49,4.99-8.68,12.02-8.68s11.47,3.39,11.47,8.78v17.66h-7.48l-.25-3.84c-1.55,2.79-4.44,4.49-8.33,4.49-4.99,0-8.48-3.29-8.48-7.83ZM361.85,349.46v-1.85l-6.09.8c-2,.25-2.94,1.2-2.94,2.74,0,1.7,1.25,2.69,3.54,2.69,2.99,0,5.49-1.75,5.49-4.39Z"/><path class="cls-3" d="M382.8,358.84v-25.79h7.63l.15,5.04c1.2-2.99,3.64-5.49,7.53-5.49.55,0,1.15.05,1.6.15v7.63c-.55-.05-1.35-.1-2.09-.1-4.64,0-6.83,2.29-6.83,6.53v12.02h-7.98Z"/><path class="cls-3" d="M400.9,351.66c0-4.44,2.84-7.08,7.78-7.68l8.98-1.2v-1.65c0-1.9-1.25-3.04-3.84-3.04s-4.09,1.05-4.29,2.99h-7.58c.3-5.49,4.99-8.68,12.02-8.68s11.47,3.39,11.47,8.78v17.66h-7.48l-.25-3.84c-1.55,2.79-4.44,4.49-8.33,4.49-4.99,0-8.48-3.29-8.48-7.83ZM417.66,349.46v-1.85l-6.09.8c-2,.25-2.94,1.2-2.94,2.74,0,1.7,1.25,2.69,3.54,2.69,2.99,0,5.49-1.75,5.49-4.39Z"/><path class="cls-3" d="M429.08,346.17v-.5c0-7.53,4.09-13.27,11.02-13.27,3.69,0,6.33,1.75,7.78,4.04v-14.52h8.03v36.91h-7.43l-.25-4.14c-1.05,2.39-3.74,4.79-7.88,4.79-6.98,0-11.27-5.64-11.27-13.32ZM448.14,346.17v-.5c0-4.79-1.8-7.28-5.49-7.28s-5.49,2.49-5.49,7.28v.5c0,4.74,1.8,7.28,5.49,7.28s5.49-2.54,5.49-7.28Z"/><path class="cls-3" d="M468.74,329.96h-8.28v-8.03h8.28v8.03ZM468.59,333.05v25.79h-7.98v-25.79h7.98Z"/><path class="cls-3" d="M472.43,346.17v-.5c0-7.78,5.39-13.27,13.52-13.27s13.52,5.49,13.52,13.27v.5c0,7.83-5.34,13.32-13.52,13.32s-13.52-5.49-13.52-13.32ZM491.38,346.17v-.5c0-4.69-1.65-7.18-5.44-7.18s-5.44,2.49-5.44,7.18v.5c0,4.74,1.7,7.23,5.44,7.23s5.44-2.49,5.44-7.23Z"/></svg>