<svg viewBox="0 0 710 391" fill="none" xmlns="http://www.w3.org/2000/svg">
<g clip-path="url(#clip0_1_7)">
<path d="M709.71 32.12L0 32.6V0H709.71V32.12Z" fill="#F9F2AD"/>
<path d="M34.51 24.35C38.7847 24.35 42.25 20.8847 42.25 16.61C42.25 12.3353 38.7847 8.87 34.51 8.87C30.2353 8.87 26.77 12.3353 26.77 16.61C26.77 20.8847 30.2353 24.35 34.51 24.35Z" fill="#FBDC6A"/>
<path d="M61.2 24.35C65.4747 24.35 68.94 20.8847 68.94 16.61C68.94 12.3353 65.4747 8.87 61.2 8.87C56.9253 8.87 53.46 12.3353 53.46 16.61C53.46 20.8847 56.9253 24.35 61.2 24.35Z" fill="#FBDC6A"/>
<path d="M87.89 24.35C92.1647 24.35 95.63 20.8847 95.63 16.61C95.63 12.3353 92.1647 8.87 87.89 8.87C83.6153 8.87 80.15 12.3353 80.15 16.61C80.15 20.8847 83.6153 24.35 87.89 24.35Z" fill="#FBDC6A"/>
<path d="M345.77 303.09C278.88 303.09 224.46 248.67 224.46 181.78C224.46 114.89 278.88 60.47 345.77 60.47C412.66 60.47 467.08 114.89 467.08 181.78C467.08 248.67 412.66 303.09 345.77 303.09ZM345.77 67.5C282.76 67.5 231.5 118.76 231.5 181.77C231.5 244.78 282.76 296.04 345.77 296.04C408.78 296.04 460.04 244.78 460.04 181.77C460.04 118.76 408.78 67.5 345.77 67.5Z" fill="#FBDC6A"/>
<path d="M411.8 180.12C414.83 181.87 414.83 186.24 411.8 187.99L363.01 216.16L314.22 244.33C311.19 246.08 307.4 243.89 307.4 240.39V184.05V127.71C307.4 124.21 311.19 122.03 314.22 123.77L363.01 151.94L411.8 180.11V180.12Z" fill="#FBDC6A"/>
<path d="M138.49 226.18C136.55 226.18 134.97 224.6 134.97 222.66V133.77C134.97 131.83 136.55 130.25 138.49 130.25C140.43 130.25 142.01 131.83 142.01 133.77V222.66C142.01 224.6 140.43 226.18 138.49 226.18Z" fill="#FBDC6A"/>
<path d="M551.54 226.18C549.6 226.18 548.02 224.6 548.02 222.66V133.77C548.02 131.83 549.6 130.25 551.54 130.25C553.48 130.25 555.06 131.83 555.06 133.77V222.66C555.06 224.6 553.48 226.18 551.54 226.18Z" fill="#FBDC6A"/>
<path d="M91.69 199.01C89.75 199.01 88.17 197.43 88.17 195.49V160.94C88.17 159 89.75 157.42 91.69 157.42C93.63 157.42 95.21 159 95.21 160.94V195.49C95.21 197.43 93.63 199.01 91.69 199.01Z" fill="#FBDC6A"/>
<path d="M598.35 199.01C596.41 199.01 594.83 197.43 594.83 195.49V160.94C594.83 159 596.41 157.42 598.35 157.42C600.29 157.42 601.87 159 601.87 160.94V195.49C601.87 197.43 600.29 199.01 598.35 199.01Z" fill="#FBDC6A"/>
<path d="M185.3 254.36C183.36 254.36 181.78 252.78 181.78 250.84V105.6C181.78 103.66 183.36 102.08 185.3 102.08C187.24 102.08 188.82 103.66 188.82 105.6V250.84C188.82 252.78 187.24 254.36 185.3 254.36Z" fill="#FBDC6A"/>
<path d="M504.73 254.36C502.79 254.36 501.21 252.78 501.21 250.84V105.6C501.21 103.66 502.79 102.08 504.73 102.08C506.67 102.08 508.25 103.66 508.25 105.6V250.84C508.25 252.78 506.67 254.36 504.73 254.36Z" fill="#FBDC6A"/>
<path d="M202.38 351.66C202.38 347.22 205.22 344.58 210.16 343.98L219.14 342.78V341.13C219.14 339.23 217.89 338.09 215.3 338.09C212.71 338.09 211.21 339.14 211.01 341.08H203.43C203.73 335.59 208.42 332.4 215.45 332.4C222.48 332.4 226.92 335.79 226.92 341.18V358.84H219.44L219.19 355C217.64 357.79 214.75 359.49 210.86 359.49C205.87 359.49 202.38 356.2 202.38 351.66ZM219.14 349.46V347.61L213.05 348.41C211.05 348.66 210.11 349.61 210.11 351.15C210.11 352.85 211.36 353.84 213.65 353.84C216.64 353.84 219.14 352.09 219.14 349.45V349.46Z" fill="#29414D"/>
<path d="M237.3 358.84L227.97 333.05H236.4L241.84 350.81L247.33 333.05H255.36L246.08 358.84H237.3Z" fill="#29414D"/>
<path d="M255.55 346.17V345.67C255.55 337.74 260.89 332.4 269.17 332.4C278.15 332.4 282.64 338.68 282.09 347.76H263.48C263.83 351.7 265.67 353.6 269.12 353.6C271.96 353.6 273.56 352.2 274.11 350.56H281.94C280.69 356 276.05 359.49 269.17 359.49C260.74 359.49 255.55 354.25 255.55 346.17ZM274.06 343.12C273.86 340.18 272.26 338.28 269.07 338.28C265.88 338.28 264.13 339.78 263.58 343.12H274.06Z" fill="#29414D"/>
<path d="M286.03 358.84V333.05H293.66L293.86 336.99C295.11 334.7 297.65 332.4 301.99 332.4C308.52 332.4 310.97 336.54 310.97 342.28V358.84H302.99V344.32C302.99 340.83 301.89 338.78 298.85 338.78C295.81 338.78 294.01 340.87 294.01 344.67V358.84H286.03Z" fill="#29414D"/>
<path d="M315.41 359.79H323.59C323.89 361.54 325.29 362.48 328.23 362.48C331.77 362.48 333.42 360.78 333.42 357.84V354C332.07 356.39 329.38 358.14 325.79 358.14C318.81 358.14 314.62 352.45 314.62 345.52V345.02C314.62 338.09 318.81 332.4 325.79 332.4C329.88 332.4 332.67 334.74 333.77 337.14L334.02 333.05H341.45V356.84C341.45 364.07 336.36 367.96 327.88 367.96C320.2 367.96 315.81 364.67 315.41 359.78V359.79ZM333.67 345.47V345.02C333.67 340.88 331.87 338.39 328.18 338.39C324.49 338.39 322.69 340.88 322.69 345.02V345.47C322.69 349.61 324.49 352.1 328.18 352.1C331.87 352.1 333.67 349.61 333.67 345.47Z" fill="#29414D"/>
<path d="M345.09 351.66C345.09 347.22 347.93 344.58 352.87 343.98L361.85 342.78V341.13C361.85 339.23 360.6 338.09 358.01 338.09C355.42 338.09 353.92 339.14 353.72 341.08H346.14C346.44 335.59 351.13 332.4 358.16 332.4C365.19 332.4 369.63 335.79 369.63 341.18V358.84H362.15L361.9 355C360.35 357.79 357.46 359.49 353.57 359.49C348.58 359.49 345.09 356.2 345.09 351.66ZM361.85 349.46V347.61L355.76 348.41C353.76 348.66 352.82 349.61 352.82 351.15C352.82 352.85 354.07 353.84 356.36 353.84C359.35 353.84 361.85 352.09 361.85 349.45V349.46Z" fill="#29414D"/>
<path d="M382.8 358.84V333.05H390.43L390.58 338.09C391.78 335.1 394.22 332.6 398.11 332.6C398.66 332.6 399.26 332.65 399.71 332.75V340.38C399.16 340.33 398.36 340.28 397.62 340.28C392.98 340.28 390.79 342.57 390.79 346.81V358.83H382.81L382.8 358.84Z" fill="#29414D"/>
<path d="M400.9 351.66C400.9 347.22 403.74 344.58 408.68 343.98L417.66 342.78V341.13C417.66 339.23 416.41 338.09 413.82 338.09C411.23 338.09 409.73 339.14 409.53 341.08H401.95C402.25 335.59 406.94 332.4 413.97 332.4C421 332.4 425.44 335.79 425.44 341.18V358.84H417.96L417.71 355C416.16 357.79 413.27 359.49 409.38 359.49C404.39 359.49 400.9 356.2 400.9 351.66ZM417.66 349.46V347.61L411.57 348.41C409.57 348.66 408.63 349.61 408.63 351.15C408.63 352.85 409.88 353.84 412.17 353.84C415.16 353.84 417.66 352.09 417.66 349.45V349.46Z" fill="#29414D"/>
<path d="M429.08 346.17V345.67C429.08 338.14 433.17 332.4 440.1 332.4C443.79 332.4 446.43 334.15 447.88 336.44V321.92H455.91V358.83H448.48L448.23 354.69C447.18 357.08 444.49 359.48 440.35 359.48C433.37 359.48 429.08 353.84 429.08 346.16V346.17ZM448.14 346.17V345.67C448.14 340.88 446.34 338.39 442.65 338.39C438.96 338.39 437.16 340.88 437.16 345.67V346.17C437.16 350.91 438.96 353.45 442.65 353.45C446.34 353.45 448.14 350.91 448.14 346.17Z" fill="#29414D"/>
<path d="M468.74 329.96H460.46V321.93H468.74V329.96ZM468.59 333.05V358.84H460.61V333.05H468.59Z" fill="#29414D"/>
<path d="M472.43 346.17V345.67C472.43 337.89 477.82 332.4 485.95 332.4C494.08 332.4 499.47 337.89 499.47 345.67V346.17C499.47 354 494.13 359.49 485.95 359.49C477.77 359.49 472.43 354 472.43 346.17ZM491.38 346.17V345.67C491.38 340.98 489.73 338.49 485.94 338.49C482.15 338.49 480.5 340.98 480.5 345.67V346.17C480.5 350.91 482.2 353.4 485.94 353.4C489.68 353.4 491.38 350.91 491.38 346.17Z" fill="#29414D"/>
</g>
<defs>
<clipPath id="clip0_1_7">
<rect width="709.71" height="390.62" fill="white"/>
</clipPath>
</defs>
</svg>
